<svg version="1" xmlns="http://www.w3.org/2000/svg" width="1333.333" height="1333.333" viewBox="0 0 1000.000000 1000.000000"><path d="M572.8 146.4c-21.2 14.3-43 29.5-48.5 33.7-30.9 23.9-75.4 68.3-118.7 118.4-7.1 8.3-13.8 15.9-14.8 17-1.1 1.1 1.4-3.9 5.5-11.1 14.4-25.4 27.6-50.1 30.7-57.1 6.6-15.6 8.8-33.9 5.4-45.4-3-10.3-8.5-16.9-19.6-23.3l-4.8-2.8-14.2 9.8c-45.8 31.2-77.4 57.1-115.6 94.9-33 32.4-55.2 57.7-80.9 92-14.2 18.9-38.3 54.4-38.3 56.3 0 .7 2.6 3.2 5.7 5.7 5.4 4.2 5.9 4.4 7.4 2.7 3.4-3.6 83.5-93.9 105.4-118.7 12.9-14.7 27-29.6 32.4-34.4 22.6-19.6 50.7-41.2 77.4-59.3 15.6-10.5 16.2-10.8 16.5-8.3.8 6.6-5.1 19.7-22.3 49-18.3 31.1-58.9 97-100.3 162.7-3.4 5.3-4.5 6.2-14.7 11.4-50.8 26.3-112.3 64.1-162.5 100-29.2 20.8-74.8 55.9-75 57.7 0 1.1 11.2 17.7 12 17.7.9 0 29.4-18.7 51-33.5 29.8-20.4 35.8-24.2 59.5-38.4 27.6-16.6 44.9-26.5 69-39.6 9.9-5.3 18.4-10 18.9-10.3.6-.3.1.8-1.1 2.4-1.1 1.6-9.1 13.9-17.8 27.4-41.6 64.4-81.2 123.5-101.7 151.9-6.6 9-11.6 16.7-11.1 17.1 3.5 3.1 29.4 22 30.2 22 1.1 0 13.8-17.4 74.1-101 45.2-62.7 80.2-110.5 104.5-142.9l17-22.6 17.9-7.7c19.5-8.5 51.9-21.8 52.9-21.8.3 0-1 3.7-2.9 8.2-8 18.5-20.7 51.8-23.2 60.8-2.3 8.2-2.7 11.4-2.7 23.6v14l3.8 7.6c9.9 20.2 30.8 26.1 61.3 17.2 40.8-11.8 100.7-40.1 145.4-68.6 15.2-9.7 41-28 41-29.1 0-.5-.3-.6-.7-.4-.5.3-8.9 5.3-18.8 11.2-51.2 30.8-111.6 56.8-166.4 71.7-14.4 3.9-29.2 4.5-35.1 1.4-13.2-7-16.2-20.7-9.2-42.2 4-12.2 16.5-40.6 29.3-66.5l10.7-21.6 11.8-4.3c52.8-18.8 121.7-39.8 155.9-47.5 17.1-3.8 32.3-5.2 42.8-3.8 15.9 2.2 26.2 7.3 30.7 15.3 3.8 6.8 3.4 17.3-.9 30.2-7.3 21.5-31.5 60.9-65.4 106.5l-15 20.1-16.6 6.2c-57.2 21.3-109.4 47.7-152.1 76.8-14.6 10-27 19.3-27 20.4 0 .4 3.5-.6 7.8-2.2 48.6-18.2 70.2-26 101.7-36.5 43.9-14.6 48.1-15.9 46.7-14.2-50 63.1-85.1 119.3-103 164.8-10.9 27.8-14.1 42-12.8 56.4 1.5 16.2 7.1 25.6 17.9 30 5 2.1 4.6.6-.7-2.6-9.6-5.9-13.3-19.1-10.3-36.5 1.9-10.8 5.9-21 15.2-39.4 23-45.2 51.6-84 117.9-159.7l24.6-28.2 6.8-2c31.9-9.4 104-27.2 198.7-49.1 113.1-26.1 188.5-45.6 188.5-48.6 0-3.5-72.1-.1-131 6.2-72.6 7.7-142.7 20.5-204 37.3-8 2.1-14.6 3.8-14.8 3.7-.1-.2 4.8-7 10.9-15.2 27.4-36.6 46.3-69 52.4-89.9 3.6-11.9 4.4-28.9 2.1-38.9-3.8-16-15-30.3-30.2-38.3-22.5-11.9-52.1-14.2-87.9-6.8-24.4 5-80.2 20.8-116.3 32.9l-16.3 5.5 3.3-5.7c19.9-35.1 46.5-77.1 107.6-170.4 20.5-31.1 37.2-56.9 37.2-57.2 0-.3-.3-.6-.7-.5-.5.1-18.2 11.9-39.5 26.3zm-96.7 133.3c-12.2 21-33 59-40.9 74.8l-6 12-23.9 9.5-24 9.6 14-17.6c18.5-23 39.2-47.9 55.3-66.5 14-16.1 34.3-38.5 34.9-38.5.2 0-4 7.5-9.4 16.7z"/></svg>